<svg width="13" height="10" viewBox="0 0 13 10" fill="none" xmlns="http://www.w3.org/2000/svg">
<path d="M0.102376 1.70721L6.49997 4.90561L12.8976 1.70721C12.8739 1.29957 12.6952 0.916403 12.3982 0.636194C12.1012 0.355985 11.7083 0.199937 11.3 0.200012H1.69998C1.29164 0.199937 0.898733 0.355985 0.601718 0.636194C0.304702 0.916403 0.126059 1.29957 0.102376 1.70721Z" fill="#1E1F26"/>
<path d="M12.9 3.49441L6.49997 6.69441L0.0999756 3.49441V8.20001C0.0999756 8.62436 0.268546 9.03133 0.568605 9.33138C0.868663 9.63144 1.27563 9.80001 1.69998 9.80001H11.3C11.7243 9.80001 12.1313 9.63144 12.4313 9.33138C12.7314 9.03133 12.9 8.62436 12.9 8.20001V3.49441Z" fill="#1E1F26"/>
</svg>
