<svg width="14" height="14" viewBox="0 0 14 14" fill="none" xmlns="http://www.w3.org/2000/svg">
<path d="M12.7143 0.333344H1.28278C0.758969 0.333344 0.333374 0.764891 0.333374 1.29465V12.7054C0.333374 13.2351 0.758969 13.6667 1.28278 13.6667H12.7143C13.2381 13.6667 13.6667 13.2351 13.6667 12.7054V1.29465C13.6667 0.764891 13.2381 0.333344 12.7143 0.333344ZM4.36314 11.7619H2.38695V5.39882H4.36611V11.7619H4.36314ZM3.37504 4.52977C2.74111 4.52977 2.22921 4.01489 2.22921 3.38394C2.22921 2.75299 2.74111 2.23811 3.37504 2.23811C4.00599 2.23811 4.52087 2.75299 4.52087 3.38394C4.52087 4.01787 4.00897 4.52977 3.37504 4.52977V4.52977ZM11.7709 11.7619H9.79468V8.66668C9.79468 7.92858 9.7798 6.97918 8.7679 6.97918C7.73814 6.97918 7.5804 7.78275 7.5804 8.61311V11.7619H5.60421V5.39882H7.50004V6.26787H7.52683C7.79171 5.76787 8.43754 5.24108 9.39885 5.24108C11.3989 5.24108 11.7709 6.55953 11.7709 8.27382V11.7619V11.7619Z" fill="white"/>
</svg>
